<mxfile host="app.diagrams.net" modified="2022-05-08T03:49:01.082Z" agent="5.0 (Windows NT 10.0; Win64; x64) AppleWebKit/537.36 (KHTML, like Gecko) Chrome/101.0.4951.54 Safari/537.36" etag="jAalMubd-y4jS2iZzz0J" version="18.0.2" type="github">
  <diagram id="6a731a19-8d31-9384-78a2-239565b7b9f0" name="Page-1">
    <mxGraphModel dx="1730" dy="912" grid="1" gridSize="10" guides="1" tooltips="1" connect="1" arrows="1" fold="1" page="1" pageScale="1" pageWidth="1169" pageHeight="827" background="none" math="0" shadow="0">
      <root>
        <mxCell id="0" />
        <mxCell id="1" parent="0" />
        <mxCell id="u00ezBZ-7AT5Ocy9s-Wc-60" value="" style="edgeStyle=orthogonalEdgeStyle;rounded=0;orthogonalLoop=1;jettySize=auto;html=1;" edge="1" parent="1" source="2" target="3">
          <mxGeometry relative="1" as="geometry" />
        </mxCell>
        <mxCell id="2" value="Start" style="shape=mxgraph.flowchart.terminator;strokeWidth=2;gradientDirection=north;fontStyle=0;html=1;fillColor=#ffe6cc;strokeColor=#d79b00;" parent="1" vertex="1">
          <mxGeometry x="220" y="20" width="120" height="30" as="geometry" />
        </mxCell>
        <mxCell id="u00ezBZ-7AT5Ocy9s-Wc-66" value="" style="edgeStyle=orthogonalEdgeStyle;rounded=0;orthogonalLoop=1;jettySize=auto;html=1;" edge="1" parent="1" source="3" target="u00ezBZ-7AT5Ocy9s-Wc-65">
          <mxGeometry relative="1" as="geometry" />
        </mxCell>
        <mxCell id="3" value="Title screen" style="shape=mxgraph.flowchart.data;strokeWidth=2;gradientDirection=north;fontStyle=0;html=1;fillColor=#dae8fc;strokeColor=#6c8ebf;" parent="1" vertex="1">
          <mxGeometry x="200.5" y="80" width="159" height="80" as="geometry" />
        </mxCell>
        <mxCell id="45" value="" style="edgeStyle=elbowEdgeStyle;elbow=horizontal;exitX=1;exitY=0.5;exitPerimeter=0;entryX=0.905;entryY=0.5;entryPerimeter=0;fontStyle=1;strokeColor=#003366;strokeWidth=1;html=1;" parent="1" target="34" edge="1">
          <mxGeometry width="100" height="100" as="geometry">
            <mxPoint x="380.5" y="1119.25" as="sourcePoint" />
            <mxPoint x="100" as="targetPoint" />
            <Array as="points">
              <mxPoint x="950" y="1320" />
            </Array>
          </mxGeometry>
        </mxCell>
        <mxCell id="u00ezBZ-7AT5Ocy9s-Wc-70" value="" style="edgeStyle=orthogonalEdgeStyle;rounded=0;orthogonalLoop=1;jettySize=auto;html=1;" edge="1" parent="1" source="u00ezBZ-7AT5Ocy9s-Wc-65" target="u00ezBZ-7AT5Ocy9s-Wc-69">
          <mxGeometry relative="1" as="geometry" />
        </mxCell>
        <mxCell id="u00ezBZ-7AT5Ocy9s-Wc-65" value="Load Quiz" style="rounded=1;whiteSpace=wrap;html=1;strokeWidth=2;gradientDirection=north;fontStyle=0;fillColor=#fff2cc;strokeColor=#d6b656;" vertex="1" parent="1">
          <mxGeometry x="440" y="90" width="120" height="60" as="geometry" />
        </mxCell>
        <mxCell id="u00ezBZ-7AT5Ocy9s-Wc-74" value="" style="edgeStyle=orthogonalEdgeStyle;rounded=0;orthogonalLoop=1;jettySize=auto;html=1;" edge="1" parent="1" source="u00ezBZ-7AT5Ocy9s-Wc-69" target="u00ezBZ-7AT5Ocy9s-Wc-73">
          <mxGeometry relative="1" as="geometry" />
        </mxCell>
        <mxCell id="u00ezBZ-7AT5Ocy9s-Wc-78" value="" style="edgeStyle=orthogonalEdgeStyle;rounded=0;orthogonalLoop=1;jettySize=auto;html=1;" edge="1" parent="1" source="u00ezBZ-7AT5Ocy9s-Wc-69" target="u00ezBZ-7AT5Ocy9s-Wc-77">
          <mxGeometry relative="1" as="geometry" />
        </mxCell>
        <mxCell id="u00ezBZ-7AT5Ocy9s-Wc-69" value="Show Quiz Info&lt;br&gt;(Amount of questions)" style="rounded=1;whiteSpace=wrap;html=1;strokeWidth=2;gradientDirection=north;fontStyle=0;fillColor=#dae8fc;strokeColor=#6c8ebf;" vertex="1" parent="1">
          <mxGeometry x="440" y="180" width="120" height="60" as="geometry" />
        </mxCell>
        <mxCell id="u00ezBZ-7AT5Ocy9s-Wc-76" value="" style="edgeStyle=orthogonalEdgeStyle;rounded=0;orthogonalLoop=1;jettySize=auto;html=1;" edge="1" parent="1" source="u00ezBZ-7AT5Ocy9s-Wc-73">
          <mxGeometry relative="1" as="geometry">
            <mxPoint x="280" y="160" as="targetPoint" />
          </mxGeometry>
        </mxCell>
        <mxCell id="u00ezBZ-7AT5Ocy9s-Wc-73" value="Back to title" style="rounded=1;whiteSpace=wrap;html=1;strokeWidth=2;gradientDirection=north;fontStyle=0;fillColor=#fff2cc;strokeColor=#d6b656;" vertex="1" parent="1">
          <mxGeometry x="220" y="180" width="120" height="60" as="geometry" />
        </mxCell>
        <mxCell id="u00ezBZ-7AT5Ocy9s-Wc-84" value="" style="edgeStyle=orthogonalEdgeStyle;rounded=0;orthogonalLoop=1;jettySize=auto;html=1;exitX=0;exitY=0.5;exitDx=0;exitDy=0;" edge="1" parent="1" source="u00ezBZ-7AT5Ocy9s-Wc-77" target="u00ezBZ-7AT5Ocy9s-Wc-81">
          <mxGeometry relative="1" as="geometry">
            <mxPoint x="380" y="300" as="sourcePoint" />
            <Array as="points">
              <mxPoint x="220" y="310" />
            </Array>
          </mxGeometry>
        </mxCell>
        <mxCell id="u00ezBZ-7AT5Ocy9s-Wc-98" value="" style="edgeStyle=orthogonalEdgeStyle;rounded=0;orthogonalLoop=1;jettySize=auto;html=1;" edge="1" parent="1" source="u00ezBZ-7AT5Ocy9s-Wc-77" target="u00ezBZ-7AT5Ocy9s-Wc-97">
          <mxGeometry relative="1" as="geometry" />
        </mxCell>
        <mxCell id="u00ezBZ-7AT5Ocy9s-Wc-77" value="Show question" style="rounded=1;whiteSpace=wrap;html=1;strokeWidth=2;gradientDirection=north;fontStyle=0;fillColor=#dae8fc;strokeColor=#6c8ebf;" vertex="1" parent="1">
          <mxGeometry x="440" y="280" width="120" height="60" as="geometry" />
        </mxCell>
        <mxCell id="u00ezBZ-7AT5Ocy9s-Wc-86" value="" style="edgeStyle=orthogonalEdgeStyle;rounded=0;orthogonalLoop=1;jettySize=auto;html=1;" edge="1" parent="1" source="u00ezBZ-7AT5Ocy9s-Wc-81" target="u00ezBZ-7AT5Ocy9s-Wc-85">
          <mxGeometry relative="1" as="geometry" />
        </mxCell>
        <mxCell id="u00ezBZ-7AT5Ocy9s-Wc-88" value="" style="edgeStyle=orthogonalEdgeStyle;rounded=0;orthogonalLoop=1;jettySize=auto;html=1;" edge="1" parent="1" source="u00ezBZ-7AT5Ocy9s-Wc-81" target="u00ezBZ-7AT5Ocy9s-Wc-87">
          <mxGeometry relative="1" as="geometry" />
        </mxCell>
        <mxCell id="u00ezBZ-7AT5Ocy9s-Wc-81" value="Select answer" style="rhombus;whiteSpace=wrap;html=1;rounded=1;strokeWidth=2;gradientDirection=north;fontStyle=0;fillColor=#fff2cc;strokeColor=#d6b656;" vertex="1" parent="1">
          <mxGeometry x="170" y="340" width="100" height="100" as="geometry" />
        </mxCell>
        <mxCell id="u00ezBZ-7AT5Ocy9s-Wc-90" value="" style="edgeStyle=orthogonalEdgeStyle;rounded=0;orthogonalLoop=1;jettySize=auto;html=1;" edge="1" parent="1" source="u00ezBZ-7AT5Ocy9s-Wc-85" target="u00ezBZ-7AT5Ocy9s-Wc-89">
          <mxGeometry relative="1" as="geometry" />
        </mxCell>
        <mxCell id="u00ezBZ-7AT5Ocy9s-Wc-85" value="If correct" style="ellipse;whiteSpace=wrap;html=1;rounded=1;strokeWidth=2;gradientDirection=north;fontStyle=0;fillColor=#d5e8d4;strokeColor=#82b366;" vertex="1" parent="1">
          <mxGeometry x="280" y="360" width="120" height="60" as="geometry" />
        </mxCell>
        <mxCell id="u00ezBZ-7AT5Ocy9s-Wc-92" value="" style="edgeStyle=orthogonalEdgeStyle;rounded=0;orthogonalLoop=1;jettySize=auto;html=1;" edge="1" parent="1" source="u00ezBZ-7AT5Ocy9s-Wc-87" target="u00ezBZ-7AT5Ocy9s-Wc-91">
          <mxGeometry relative="1" as="geometry" />
        </mxCell>
        <mxCell id="u00ezBZ-7AT5Ocy9s-Wc-87" value="If incorrect" style="ellipse;whiteSpace=wrap;html=1;rounded=1;strokeWidth=2;gradientDirection=north;fontStyle=0;fillColor=#d5e8d4;strokeColor=#82b366;" vertex="1" parent="1">
          <mxGeometry x="40" y="360" width="120" height="60" as="geometry" />
        </mxCell>
        <mxCell id="u00ezBZ-7AT5Ocy9s-Wc-96" value="" style="edgeStyle=orthogonalEdgeStyle;rounded=0;orthogonalLoop=1;jettySize=auto;html=1;entryX=0.5;entryY=0;entryDx=0;entryDy=0;" edge="1" parent="1" source="u00ezBZ-7AT5Ocy9s-Wc-89" target="u00ezBZ-7AT5Ocy9s-Wc-93">
          <mxGeometry relative="1" as="geometry">
            <mxPoint x="380" y="570" as="targetPoint" />
          </mxGeometry>
        </mxCell>
        <mxCell id="u00ezBZ-7AT5Ocy9s-Wc-89" value="Increase score" style="whiteSpace=wrap;html=1;rounded=1;strokeWidth=2;gradientDirection=north;fontStyle=0;fillColor=#dae8fc;strokeColor=#6c8ebf;" vertex="1" parent="1">
          <mxGeometry x="280" y="450" width="120" height="60" as="geometry" />
        </mxCell>
        <mxCell id="u00ezBZ-7AT5Ocy9s-Wc-94" value="" style="edgeStyle=orthogonalEdgeStyle;rounded=0;orthogonalLoop=1;jettySize=auto;html=1;" edge="1" parent="1" source="u00ezBZ-7AT5Ocy9s-Wc-91" target="u00ezBZ-7AT5Ocy9s-Wc-93">
          <mxGeometry relative="1" as="geometry" />
        </mxCell>
        <mxCell id="u00ezBZ-7AT5Ocy9s-Wc-91" value="Show correct answer" style="whiteSpace=wrap;html=1;rounded=1;strokeWidth=2;gradientDirection=north;fontStyle=0;fillColor=#dae8fc;strokeColor=#6c8ebf;" vertex="1" parent="1">
          <mxGeometry x="40" y="450" width="120" height="60" as="geometry" />
        </mxCell>
        <mxCell id="u00ezBZ-7AT5Ocy9s-Wc-105" value="" style="edgeStyle=orthogonalEdgeStyle;rounded=0;orthogonalLoop=1;jettySize=auto;html=1;entryX=1;entryY=0.5;entryDx=0;entryDy=0;" edge="1" parent="1" source="u00ezBZ-7AT5Ocy9s-Wc-93" target="u00ezBZ-7AT5Ocy9s-Wc-77">
          <mxGeometry relative="1" as="geometry">
            <mxPoint x="220" y="690" as="targetPoint" />
            <Array as="points">
              <mxPoint x="220" y="640" />
              <mxPoint x="580" y="640" />
              <mxPoint x="580" y="310" />
            </Array>
          </mxGeometry>
        </mxCell>
        <mxCell id="u00ezBZ-7AT5Ocy9s-Wc-111" value="" style="edgeStyle=orthogonalEdgeStyle;rounded=0;orthogonalLoop=1;jettySize=auto;html=1;" edge="1" parent="1" source="u00ezBZ-7AT5Ocy9s-Wc-93" target="u00ezBZ-7AT5Ocy9s-Wc-110">
          <mxGeometry relative="1" as="geometry" />
        </mxCell>
        <mxCell id="u00ezBZ-7AT5Ocy9s-Wc-93" value="Next question" style="whiteSpace=wrap;html=1;rounded=1;strokeWidth=2;gradientDirection=north;fontStyle=0;fillColor=#dae8fc;strokeColor=#6c8ebf;" vertex="1" parent="1">
          <mxGeometry x="160" y="550" width="120" height="60" as="geometry" />
        </mxCell>
        <mxCell id="u00ezBZ-7AT5Ocy9s-Wc-103" value="" style="edgeStyle=orthogonalEdgeStyle;rounded=0;orthogonalLoop=1;jettySize=auto;html=1;entryX=1;entryY=0.5;entryDx=0;entryDy=0;" edge="1" parent="1" source="u00ezBZ-7AT5Ocy9s-Wc-97" target="u00ezBZ-7AT5Ocy9s-Wc-93">
          <mxGeometry relative="1" as="geometry">
            <mxPoint x="460" y="600" as="targetPoint" />
            <Array as="points">
              <mxPoint x="420" y="450" />
              <mxPoint x="420" y="580" />
            </Array>
          </mxGeometry>
        </mxCell>
        <mxCell id="u00ezBZ-7AT5Ocy9s-Wc-97" value="Skip question" style="rhombus;whiteSpace=wrap;html=1;rounded=1;strokeWidth=2;gradientDirection=north;fontStyle=0;fillColor=#fff2cc;strokeColor=#d6b656;" vertex="1" parent="1">
          <mxGeometry x="452.5" y="400" width="95" height="100" as="geometry" />
        </mxCell>
        <mxCell id="u00ezBZ-7AT5Ocy9s-Wc-106" value="If more questions" style="ellipse;whiteSpace=wrap;html=1;rounded=1;strokeWidth=2;gradientDirection=north;fontStyle=0;fillColor=#d5e8d4;strokeColor=#82b366;" vertex="1" parent="1">
          <mxGeometry x="350" y="610" width="120" height="60" as="geometry" />
        </mxCell>
        <mxCell id="u00ezBZ-7AT5Ocy9s-Wc-115" style="edgeStyle=orthogonalEdgeStyle;rounded=0;orthogonalLoop=1;jettySize=auto;html=1;exitX=0.5;exitY=1;exitDx=0;exitDy=0;entryX=0.5;entryY=0;entryDx=0;entryDy=0;" edge="1" parent="1" source="u00ezBZ-7AT5Ocy9s-Wc-110" target="u00ezBZ-7AT5Ocy9s-Wc-114">
          <mxGeometry relative="1" as="geometry" />
        </mxCell>
        <mxCell id="u00ezBZ-7AT5Ocy9s-Wc-110" value="If no more questions remain" style="ellipse;whiteSpace=wrap;html=1;rounded=1;strokeWidth=2;gradientDirection=north;fontStyle=0;fillColor=#d5e8d4;strokeColor=#82b366;" vertex="1" parent="1">
          <mxGeometry x="160" y="660" width="120" height="60" as="geometry" />
        </mxCell>
        <mxCell id="u00ezBZ-7AT5Ocy9s-Wc-116" style="edgeStyle=orthogonalEdgeStyle;rounded=0;orthogonalLoop=1;jettySize=auto;html=1;exitX=1;exitY=0.5;exitDx=0;exitDy=0;entryX=1;entryY=0.5;entryDx=0;entryDy=0;entryPerimeter=0;" edge="1" parent="1" source="u00ezBZ-7AT5Ocy9s-Wc-114" target="2">
          <mxGeometry relative="1" as="geometry">
            <Array as="points">
              <mxPoint x="680" y="770" />
              <mxPoint x="680" y="35" />
            </Array>
          </mxGeometry>
        </mxCell>
        <mxCell id="u00ezBZ-7AT5Ocy9s-Wc-114" value="Show score" style="rounded=1;whiteSpace=wrap;html=1;strokeWidth=2;gradientDirection=north;fontStyle=0;fillColor=#dae8fc;strokeColor=#6c8ebf;" vertex="1" parent="1">
          <mxGeometry x="160" y="740" width="120" height="60" as="geometry" />
        </mxCell>
      </root>
    </mxGraphModel>
  </diagram>
</mxfile>
